<svg xmlns="http://www.w3.org/2000/svg" xmlns:xlink="http://www.w3.org/1999/xlink" id="Layer_1" x="0" y="0" version="1.1" viewBox="0 0 56.07 41.13" xml:space="preserve" style="enable-background:new 0 0 56.07 41.13"><style type="text/css">.st283{fill:#56486b}</style><g id="Tb5XSZ.tif_00000083090388975413531440000009279029099137758356_"><g><g><path d="M28.01,41.12c-8.28,0-16.57,0-24.85,0c-1.68,0-2.84-0.87-3.1-2.34C0,38.52,0,38.24,0,37.97 c0-11.6,0-23.2,0-34.81C0,1.14,1.14,0,3.15,0c16.59,0,33.18,0,49.76,0c2.02,0,3.15,1.14,3.15,3.16c0,11.6,0,23.2,0,34.81 c0,2.02-1.14,3.16-3.15,3.16C44.62,41.13,36.31,41.12,28.01,41.12z M22.47,26.13c0.2-0.31,0.29-0.52,0.45-0.67 c4.99-5,9.99-9.99,14.99-14.97c0.27-0.27,0.56-0.54,0.88-0.73c1.19-0.7,2.52-0.45,3.62,0.65c3.76,3.75,7.51,7.51,11.27,11.26 c0.15,0.15,0.3,0.28,0.51,0.48c0.01-0.2,0.02-0.29,0.02-0.38c0-6.24,0-12.48,0-18.72c0-0.86-0.36-1.18-1.27-1.18 c-16.59,0-33.18,0-49.77,0c-0.97,0-1.29,0.32-1.29,1.27c0,6.81,0,13.61,0,20.42c0,0.13,0.03,0.26,0.04,0.39 c0.04,0.02,0.08,0.05,0.13,0.07c0.11-0.15,0.2-0.31,0.33-0.44c2.2-2.21,4.41-4.41,6.62-6.62c1.42-1.42,3.04-1.42,4.46,0 c2.84,2.84,5.68,5.67,8.52,8.51C22.11,25.63,22.21,25.8,22.47,26.13z M11.79,39.25c0.26,0,0.37,0,0.48,0c13.54,0,27.08,0,40.62,0 c1,0,1.31-0.32,1.31-1.31c0-4.18,0-8.35,0.01-12.53c0-0.4-0.11-0.67-0.39-0.95c-4.23-4.21-8.45-8.43-12.67-12.64 c-0.78-0.78-1.15-0.78-1.92-0.01c-9,8.99-17.99,17.98-26.99,26.97C12.12,38.89,12.01,39.02,11.79,39.25z M21.07,27.3 c-0.06-0.1-0.08-0.15-0.12-0.18c-2.99-2.99-5.98-5.98-8.98-8.97c-0.54-0.53-1.02-0.49-1.61,0.09c-2.74,2.73-5.47,5.46-8.19,8.21 c-0.17,0.17-0.29,0.46-0.29,0.7c-0.02,3.61-0.01,7.22-0.01,10.83c0,0.95,0.32,1.27,1.29,1.28c1.81,0,3.61-0.01,5.42,0.01 c0.38,0,0.64-0.11,0.91-0.37c2.83-2.84,5.67-5.68,8.51-8.51C19.01,29.36,20.03,28.34,21.07,27.3z" class="st283"/><path d="M28.97,12.15c0,3.07-2.53,5.6-5.6,5.6c-3.07,0-5.61-2.53-5.62-5.59c0-3.05,2.56-5.61,5.61-5.61 C26.42,6.55,28.97,9.09,28.97,12.15z M27.09,12.17c0.01-2.04-1.67-3.74-3.71-3.75c-2.03-0.01-3.74,1.68-3.75,3.72 c-0.02,2.03,1.68,3.72,3.72,3.73C25.41,15.88,27.07,14.23,27.09,12.17z" class="st283"/></g></g></g></svg>