<svg xmlns="http://www.w3.org/2000/svg" xmlns:xlink="http://www.w3.org/1999/xlink" id="Layer_1" x="0" y="0" version="1.1" viewBox="0 0 25.97 23.36" xml:space="preserve" style="enable-background:new 0 0 25.97 23.36"><style type="text/css">.st221{fill:#fff}</style><g id="_x39_OE7Yc.tif_00000026164649275779582510000011960061308311828879_"><g><g><path d="M12.97,23.36c-4.01,0-8.02,0-12.03,0c-0.13,0-0.27,0-0.4-0.02c-0.28-0.04-0.49-0.26-0.52-0.54 C0,22.7,0.01,22.6,0.01,22.5c0-4.62,0-9.24-0.01-13.87c0-0.43,0.15-0.68,0.53-0.87c1.05-0.53,2.09-1.1,3.14-1.64 c0.18-0.09,0.24-0.19,0.24-0.39C3.9,4.09,3.9,2.45,3.9,0.81C3.9,0.22,4.12,0,4.72,0c5.51,0,11.01,0,16.52,0 c0.61,0,0.83,0.23,0.83,0.83c0,1.59,0.01,3.19-0.01,4.78c0,0.3,0.1,0.44,0.35,0.57c1.03,0.52,2.04,1.07,3.06,1.6 c0.35,0.18,0.49,0.43,0.49,0.82c-0.01,4.62,0,9.24,0,13.87c0,0.69-0.2,0.89-0.88,0.89C21.05,23.36,17.01,23.36,12.97,23.36z M24.65,22.04c0-4.17,0-8.32,0-12.52c-0.17,0.09-0.31,0.16-0.45,0.23c-3.58,1.88-7.15,3.76-10.73,5.65 c-0.35,0.19-0.64,0.18-0.99-0.01c-3.64-1.92-7.28-3.83-10.92-5.75C1.49,9.61,1.42,9.58,1.33,9.53c0,4.2,0,8.35,0,12.51 C9.11,22.04,16.87,22.04,24.65,22.04z M5.22,1.31C5.21,1.38,5.2,1.4,5.2,1.43c0,2.83,0,5.66-0.01,8.49 c0,0.17,0.09,0.23,0.22,0.29c2.45,1.29,4.91,2.58,7.36,3.88c0.16,0.09,0.29,0.08,0.44,0c2.44-1.29,4.89-2.58,7.33-3.86 c0.18-0.09,0.23-0.2,0.23-0.39c-0.01-2.74,0-5.48,0-8.21c0-0.09-0.01-0.19-0.01-0.29C15.57,1.31,10.4,1.31,5.22,1.31z M2.05,8.44 C2.68,8.77,3.27,9.08,3.89,9.4c0-0.66,0-1.27,0-1.93C3.27,7.8,2.67,8.11,2.05,8.44z M23.92,8.44c-0.64-0.33-1.23-0.64-1.83-0.96 c0,0.66,0,1.27,0,1.92C22.7,9.08,23.29,8.77,23.92,8.44z" class="st221"/><path d="M12.97,7.79c-1.47,0-2.94,0-4.4,0c-0.48,0-0.76-0.25-0.76-0.65c0-0.31,0.21-0.57,0.52-0.63 c0.11-0.02,0.23-0.02,0.35-0.02c2.88,0,5.76,0,8.65,0c0.56,0,0.87,0.24,0.86,0.66c-0.01,0.41-0.31,0.64-0.86,0.64 C15.87,7.79,14.42,7.79,12.97,7.79z" class="st221"/><path d="M12.99,3.89c1.44,0,2.88,0,4.32,0c0.55,0,0.85,0.22,0.86,0.64c0.01,0.42-0.3,0.66-0.87,0.66 c-2.88,0-5.76,0-8.65,0c-0.12,0-0.24,0-0.35-0.02c-0.3-0.05-0.51-0.3-0.52-0.6c-0.01-0.31,0.19-0.59,0.5-0.65 C8.42,3.9,8.55,3.89,8.67,3.89C10.11,3.89,11.55,3.89,12.99,3.89z" class="st221"/><path d="M12.96,10.38c-1.04,0-2.09,0-3.13,0c-0.46,0-0.74-0.26-0.74-0.65c0-0.31,0.21-0.57,0.52-0.63 c0.11-0.02,0.21-0.02,0.32-0.02c2.03,0,4.05,0,6.08,0c0.55,0,0.85,0.22,0.86,0.64c0.01,0.42-0.3,0.66-0.86,0.66 C15,10.38,13.98,10.38,12.96,10.38z" class="st221"/></g></g></g></svg>